<svg width="30" height="30" viewBox="0 0 30 30" fill="none" xmlns="http://www.w3.org/2000/svg">
<path d="M7.61251 26.325C7.28099 26.325 6.96304 26.1933 6.72862 25.9589C6.4942 25.7245 6.36251 25.4065 6.36251 25.075L6.17501 6.75C6.15996 6.37793 6.21861 6.00656 6.3476 5.65724C6.47659 5.30792 6.67337 4.98755 6.92662 4.71455C7.17986 4.44155 7.48459 4.22132 7.82325 4.06651C8.16192 3.9117 8.52786 3.82538 8.90001 3.8125L20.8875 3.75C21.2601 3.75651 21.6279 3.83637 21.9696 3.98501C22.3114 4.13365 22.6206 4.34817 22.8794 4.61631C23.1383 4.88445 23.3418 5.20096 23.4783 5.54776C23.6148 5.89456 23.6816 6.26486 23.675 6.6375L23.85 24.9625C23.8522 25.1815 23.7967 25.3973 23.6892 25.5882C23.5817 25.779 23.4259 25.9383 23.2375 26.05C23.0475 26.1597 22.8319 26.2175 22.6125 26.2175C22.3931 26.2175 22.1775 26.1597 21.9875 26.05L14.8625 22.1L8.25001 26.1375C8.0542 26.2469 7.83635 26.3109 7.61251 26.325ZM14.8125 19.3875C15.0297 19.3879 15.2438 19.4393 15.4375 19.5375L21.325 22.8L21.175 6.6125C21.175 6.3625 21.0125 6.1875 20.9125 6.2L8.91251 6.3125C8.81251 6.3125 8.67501 6.475 8.67501 6.725L8.82501 22.85L14.175 19.5625C14.3693 19.4512 14.5886 19.391 14.8125 19.3875Z" fill="#67ADFF"/>
</svg>
