<svg width="30" height="30" viewBox="0 0 30 30" fill="none" xmlns="http://www.w3.org/2000/svg">
<path d="M7.49999 28.25C7.28526 28.2493 7.07431 28.1934 6.88749 28.0875C6.69441 27.979 6.53363 27.8211 6.42162 27.63C6.3096 27.4389 6.25037 27.2215 6.24999 27V8.6625C6.23309 7.9129 6.51228 7.18683 7.02703 6.64165C7.54179 6.09648 8.25065 5.77612 8.99999 5.75H21C21.7493 5.77612 22.4582 6.09648 22.9729 6.64165C23.4877 7.18683 23.7669 7.9129 23.75 8.6625V27C23.7487 27.2181 23.6903 27.4321 23.5806 27.6207C23.471 27.8093 23.3139 27.9659 23.125 28.075C22.935 28.1847 22.7194 28.2425 22.5 28.2425C22.2806 28.2425 22.065 28.1847 21.875 28.075L14.7875 24.0625L8.12499 28.0625C7.93693 28.1792 7.72125 28.2439 7.49999 28.25Z" fill="#67ADFF"/>
</svg>
