<svg width="48" height="14" viewBox="0 0 48 14" fill="none" xmlns="http://www.w3.org/2000/svg">
<rect width="48" height="14" rx="6" fill="#EBFFE1"/>
<path d="M13.868 8.35352H5.82109V7.48438H9.28789V6.63477H6.86602V3.25586H7.94024V4.13477H11.7488V3.25586H12.823V6.63477H10.3816V7.48438H13.868V8.35352ZM12.8816 11.8691H11.7977V9.91602H6.70977V9.05664H12.8816V11.8691ZM11.7488 5.76562V4.94531H7.94024V5.76562H11.7488ZM16.5047 9.17383H20.3914V8.33398H21.4754V11.7617H15.4305V8.33398H16.5047V9.17383ZM20.3914 10.9023V10.0039H16.5047V10.9023H20.3914ZM22.5105 7.83594H14.4637V6.94727H22.5105V7.83594ZM19.0438 3.4707C19.0438 3.78646 19.1707 4.09733 19.4246 4.40332C19.6818 4.70931 20.0415 4.97298 20.5037 5.19434C20.966 5.41569 21.4917 5.56055 22.0809 5.62891L21.7 6.48828C20.9676 6.38737 20.3198 6.18392 19.7566 5.87793C19.1967 5.56868 18.7736 5.18945 18.4871 4.74023C18.2007 5.19271 17.7758 5.57194 17.2127 5.87793C16.6528 6.18392 16.0066 6.38737 15.2742 6.48828L14.8738 5.62891C15.4728 5.55729 16.0034 5.41406 16.4656 5.19922C16.9279 4.98112 17.2859 4.7207 17.5398 4.41797C17.797 4.11198 17.9272 3.79622 17.9305 3.4707V3.13867H19.0438V3.4707ZM28.1453 3.42188C28.5717 3.42188 28.9526 3.49674 29.2879 3.64648C29.6232 3.79297 29.8852 4.0013 30.074 4.27148C30.2628 4.54167 30.3589 4.85091 30.3621 5.19922C30.3589 5.48568 30.2872 5.74935 30.1473 5.99023C30.0105 6.22786 29.8185 6.42643 29.5711 6.58594C29.3237 6.74544 29.0372 6.85612 28.7117 6.91797V7.63574C29.4962 7.59017 30.2156 7.52018 30.8699 7.42578L30.9578 8.2168C30.1408 8.36328 29.2879 8.46094 28.3992 8.50977C27.5138 8.55534 26.573 8.57812 25.577 8.57812L25.4598 7.70898H25.8992C26.3712 7.70898 26.9441 7.70085 27.618 7.68457V6.92285C27.2827 6.86751 26.9865 6.76009 26.7293 6.60059C26.4754 6.44108 26.2785 6.24089 26.1385 6C26.0018 5.75911 25.935 5.49219 25.9383 5.19922C25.935 4.85091 26.0262 4.54167 26.2117 4.27148C26.4005 4.0013 26.6626 3.79297 26.9979 3.64648C27.3331 3.49674 27.7156 3.42188 28.1453 3.42188ZM28.1453 4.25195C27.9109 4.25195 27.7026 4.28939 27.5203 4.36426C27.3413 4.43913 27.2013 4.54818 27.1004 4.69141C26.9995 4.83464 26.9507 5.00391 26.9539 5.19922C26.9507 5.38802 26.9995 5.55404 27.1004 5.69727C27.2013 5.83724 27.3413 5.94629 27.5203 6.02441C27.7026 6.10254 27.9109 6.14323 28.1453 6.14648C28.5001 6.13997 28.7866 6.05208 29.0047 5.88281C29.2228 5.71354 29.3335 5.48568 29.3367 5.19922C29.3335 4.90625 29.2228 4.67513 29.0047 4.50586C28.7866 4.33659 28.5001 4.25195 28.1453 4.25195ZM32.4715 5.90234H33.6629V6.80078H32.4715V9.78906H31.3875V3.05078H32.4715V5.90234ZM32.784 11.6836H26.6707V9.19336H27.7547V10.8047H32.784V11.6836ZM42.1883 10.8438H34.1219V9.94531H36.2605V8.49023H35.0789V5.60938H40.157V4.52539H35.0594V3.64648H41.2313V6.47852H36.1629V7.61133H41.4363V8.49023H40.1473V9.94531H42.1883V10.8438ZM39.0828 9.94531V8.49023H37.3152V9.94531H39.0828Z" fill="#5BC55B"/>
</svg>
