<svg width="29" height="29" viewBox="0 0 29 29" fill="none" xmlns="http://www.w3.org/2000/svg">
<path d="M20.5417 10.8751V8.45842C20.5417 5.07508 17.8834 2.41675 14.5 2.41675C11.1167 2.41675 8.45837 5.07508 8.45837 8.45842V10.8751C6.40421 10.8751 4.83337 12.4459 4.83337 14.5001V22.9584C4.83337 25.0126 6.40421 26.5834 8.45837 26.5834H20.5417C22.5959 26.5834 24.1667 25.0126 24.1667 22.9584V14.5001C24.1667 12.4459 22.5959 10.8751 20.5417 10.8751ZM10.875 8.45842C10.875 6.40425 12.4459 4.83341 14.5 4.83341C16.5542 4.83341 18.125 6.40425 18.125 8.45842V10.8751H10.875V8.45842ZM15.8292 18.7292L15.7084 18.8501V20.5417C15.7084 21.2667 15.225 21.7501 14.5 21.7501C13.775 21.7501 13.2917 21.2667 13.2917 20.5417V18.8501C12.5667 18.1251 12.4459 17.0376 13.1709 16.3126C13.8959 15.5876 14.9834 15.4667 15.7084 16.1917C16.4334 16.7959 16.5542 18.0042 15.8292 18.7292Z" fill="#737373"/>
</svg>
