<svg width="40" height="14" viewBox="0 0 40 14" fill="none" xmlns="http://www.w3.org/2000/svg">
<rect width="40" height="14" rx="6" fill="#F4F4F4"/>
<path d="M14.1895 8.35352H6.14258V7.48438H9.60938V6.63477H7.1875V3.25586H8.26172V4.13477H12.0703V3.25586H13.1445V6.63477H10.7031V7.48438H14.1895V8.35352ZM13.2031 11.8691H12.1191V9.91602H7.03125V9.05664H13.2031V11.8691ZM12.0703 5.76562V4.94531H8.26172V5.76562H12.0703ZM16.8262 9.17383H20.7129V8.33398H21.7969V11.7617H15.752V8.33398H16.8262V9.17383ZM20.7129 10.9023V10.0039H16.8262V10.9023H20.7129ZM22.832 7.83594H14.7852V6.94727H22.832V7.83594ZM19.3652 3.4707C19.3652 3.78646 19.4922 4.09733 19.7461 4.40332C20.0033 4.70931 20.363 4.97298 20.8252 5.19434C21.2874 5.41569 21.8132 5.56055 22.4023 5.62891L22.0215 6.48828C21.2891 6.38737 20.6413 6.18392 20.0781 5.87793C19.5182 5.56868 19.0951 5.18945 18.8086 4.74023C18.5221 5.19271 18.0973 5.57194 17.5342 5.87793C16.9743 6.18392 16.3281 6.38737 15.5957 6.48828L15.1953 5.62891C15.7943 5.55729 16.3249 5.41406 16.7871 5.19922C17.2493 4.98112 17.6074 4.7207 17.8613 4.41797C18.1185 4.11198 18.2487 3.79622 18.252 3.4707V3.13867H19.3652V3.4707ZM33.1934 9.49609H32.1094V6.26367H30.5469V5.38477H32.1094V3.05078H33.1934V9.49609ZM33.418 11.6934H27.4023V8.92969H28.4863V10.8145H33.418V11.6934ZM29.043 4.80859C29.043 5.16992 29.1227 5.52311 29.2822 5.86816C29.4417 6.20996 29.6777 6.51758 29.9902 6.79102C30.3027 7.0612 30.6803 7.26953 31.123 7.41602L30.5762 8.28516C30.0944 8.11914 29.6777 7.87826 29.3262 7.5625C28.9779 7.24349 28.7044 6.87077 28.5059 6.44434C28.3073 6.9196 28.0241 7.33301 27.6562 7.68457C27.2884 8.03288 26.849 8.29492 26.3379 8.4707L25.7812 7.5918C26.237 7.44206 26.626 7.22396 26.9482 6.9375C27.2738 6.64779 27.5195 6.31901 27.6855 5.95117C27.8548 5.58008 27.9395 5.19596 27.9395 4.79883V4.56445H26.1035V3.68555H30.8691V4.56445H29.043V4.80859Z" fill="#898989"/>
</svg>
