<svg width="165" height="75" viewBox="0 0 165 75" fill="none" xmlns="http://www.w3.org/2000/svg">
<rect width="165" height="75" rx="10" fill="#81E381"/>
<path d="M78.4999 47.5C78.3029 47.5 78.1079 47.4612 77.926 47.3859C77.744 47.3105 77.5787 47.2001 77.4394 47.0608L68.4394 38.0605C68.2961 37.9221 68.1818 37.7566 68.1032 37.5736C68.0246 37.3906 67.9832 37.1937 67.9815 36.9946C67.9798 36.7954 68.0177 36.5979 68.0931 36.4135C68.1686 36.2292 68.2799 36.0617 68.4208 35.9209C68.5616 35.78 68.7291 35.6687 68.9134 35.5932C69.0978 35.5178 69.2953 35.4799 69.4945 35.4816C69.6936 35.4833 69.8905 35.5247 70.0735 35.6033C70.2565 35.6819 70.422 35.7962 70.5604 35.9395L78.4999 43.879L95.4394 26.9395C95.5781 26.7976 95.7436 26.6847 95.9262 26.6073C96.1089 26.5298 96.3051 26.4894 96.5035 26.4883C96.7019 26.4872 96.8985 26.5255 97.082 26.6009C97.2655 26.6763 97.4322 26.7874 97.5725 26.9277C97.7128 27.068 97.8238 27.2347 97.8992 27.4183C97.9746 27.6018 98.0129 27.7984 98.0117 27.9968C98.0106 28.1952 97.9701 28.3914 97.8927 28.574C97.8152 28.7567 97.7022 28.9221 97.5604 29.0608L79.5604 47.0608C79.4211 47.2001 79.2558 47.3105 79.0738 47.3859C78.8918 47.4612 78.6968 47.5 78.4999 47.5Z" fill="white"/>
</svg>
