<svg width="13" height="21" viewBox="0 0 13 21" fill="none" xmlns="http://www.w3.org/2000/svg">
<path d="M12.5017 9.42033C12.4867 9.40783 12.4667 9.40283 12.4517 9.39033L2.80918 0.662834C2.26668 0.175334 1.38668 0.175334 0.844179 0.662834C0.839179 0.667834 0.83668 0.672834 0.83418 0.677834C0.702818 0.786297 0.596726 0.922138 0.523318 1.07586C0.44991 1.22959 0.410956 1.39749 0.40918 1.56783V19.0253C0.411983 19.1988 0.452841 19.3695 0.528871 19.5255C0.6049 19.6814 0.714245 19.8188 0.84918 19.9278L0.844179 19.9328C1.11714 20.1688 1.46589 20.2986 1.82668 20.2986C2.18747 20.2986 2.53622 20.1688 2.80918 19.9328L12.5017 11.1853C12.6293 11.0764 12.7318 10.9411 12.8021 10.7888C12.8724 10.6364 12.9088 10.4706 12.9088 10.3028C12.9088 10.135 12.8724 9.96925 12.8021 9.81689C12.7318 9.66453 12.6293 9.52923 12.5017 9.42033Z" fill="#67ADFF"/>
</svg>
