<svg width="11" height="12" viewBox="0 0 11 12" fill="none" xmlns="http://www.w3.org/2000/svg">
<g clip-path="url(#clip0_143_702)">
<path d="M8.89286 0.73999H1.48214C0.663491 0.73999 0 1.40348 0 2.22213V9.63285C0 10.4515 0.663491 11.115 1.48214 11.115H8.89286C9.71151 11.115 10.375 10.4515 10.375 9.63285V2.22213C10.375 1.40348 9.71035 0.73999 8.89286 0.73999ZM9.26339 9.63285C9.26339 9.83747 9.09748 10.0034 8.89286 10.0034H1.48214C1.27751 10.0034 1.11161 9.83747 1.11161 9.63285V2.22213C1.11161 2.01746 1.27751 1.8516 1.48214 1.8516H8.89286C9.09748 1.8516 9.26339 2.01746 9.26339 2.22213V9.63285Z" fill="white"/>
</g>
<defs>
<clipPath id="clip0_143_702">
<rect width="10.375" height="11.8571" fill="white"/>
</clipPath>
</defs>
</svg>
