<svg width="25" height="23" viewBox="0 0 25 23" fill="none" xmlns="http://www.w3.org/2000/svg">
<path d="M12.0119 13.3275C12.2099 13.3275 12.4034 13.2717 12.568 13.1671C12.7327 13.0625 12.861 12.9138 12.9367 12.7398C13.0125 12.5659 13.0323 12.3745 12.9937 12.1898C12.9551 12.0052 12.8597 11.8355 12.7197 11.7024C12.5797 11.5693 12.4014 11.4786 12.2072 11.4419C12.013 11.4051 11.8118 11.424 11.6289 11.496C11.4459 11.5681 11.2896 11.6901 11.1796 11.8467C11.0696 12.0032 11.0109 12.1873 11.0109 12.3755C11.0109 12.628 11.1164 12.8701 11.3041 13.0487C11.4918 13.2272 11.7464 13.3275 12.0119 13.3275ZM17.0169 13.3275C17.2149 13.3275 17.4084 13.2717 17.573 13.1671C17.7376 13.0625 17.8659 12.9138 17.9417 12.7398C18.0175 12.5659 18.0373 12.3745 17.9987 12.1898C17.96 12.0052 17.8647 11.8355 17.7247 11.7024C17.5847 11.5693 17.4064 11.4786 17.2122 11.4419C17.018 11.4051 16.8167 11.424 16.6338 11.496C16.4509 11.5681 16.2946 11.6901 16.1846 11.8467C16.0746 12.0032 16.0159 12.1873 16.0159 12.3755C16.0159 12.628 16.1214 12.8701 16.3091 13.0487C16.4968 13.2272 16.7514 13.3275 17.0169 13.3275ZM12.0119 17.1353C12.2099 17.1353 12.4034 17.0795 12.568 16.9749C12.7327 16.8703 12.861 16.7216 12.9367 16.5476C13.0125 16.3737 13.0323 16.1823 12.9937 15.9976C12.9551 15.813 12.8597 15.6434 12.7197 15.5102C12.5797 15.3771 12.4014 15.2864 12.2072 15.2497C12.013 15.213 11.8118 15.2318 11.6289 15.3039C11.4459 15.3759 11.2896 15.4979 11.1796 15.6545C11.0696 15.811 11.0109 15.9951 11.0109 16.1834C11.0109 16.4358 11.1164 16.678 11.3041 16.8565C11.4918 17.035 11.7464 17.1353 12.0119 17.1353ZM17.0169 17.1353C17.2149 17.1353 17.4084 17.0795 17.573 16.9749C17.7376 16.8703 17.8659 16.7216 17.9417 16.5476C18.0175 16.3737 18.0373 16.1823 17.9987 15.9976C17.96 15.813 17.8647 15.6434 17.7247 15.5102C17.5847 15.3771 17.4064 15.2864 17.2122 15.2497C17.018 15.213 16.8167 15.2318 16.6338 15.3039C16.4509 15.3759 16.2946 15.4979 16.1846 15.6545C16.0746 15.811 16.0159 15.9951 16.0159 16.1834C16.0159 16.4358 16.1214 16.678 16.3091 16.8565C16.4968 17.035 16.7514 17.1353 17.0169 17.1353ZM7.00694 13.3275C7.20491 13.3275 7.39845 13.2717 7.56306 13.1671C7.72767 13.0625 7.85597 12.9138 7.93174 12.7398C8.0075 12.5659 8.02732 12.3745 7.9887 12.1898C7.95008 12.0052 7.85474 11.8355 7.71475 11.7024C7.57476 11.5693 7.3964 11.4786 7.20222 11.4419C7.00805 11.4051 6.80678 11.424 6.62387 11.496C6.44096 11.5681 6.28463 11.6901 6.17464 11.8467C6.06465 12.0032 6.00594 12.1873 6.00594 12.3755C6.00594 12.628 6.1114 12.8701 6.29912 13.0487C6.48685 13.2272 6.74146 13.3275 7.00694 13.3275ZM19.0189 3.80796H18.0179V2.85601C18.0179 2.60353 17.9124 2.3614 17.7247 2.18287C17.537 2.00435 17.2824 1.90405 17.0169 1.90405C16.7514 1.90405 16.4968 2.00435 16.3091 2.18287C16.1214 2.3614 16.0159 2.60353 16.0159 2.85601V3.80796H8.00793V2.85601C8.00793 2.60353 7.90247 2.3614 7.71475 2.18287C7.52702 2.00435 7.27242 1.90405 7.00694 1.90405C6.74146 1.90405 6.48685 2.00435 6.29912 2.18287C6.1114 2.3614 6.00594 2.60353 6.00594 2.85601V3.80796H5.00494C4.2085 3.80796 3.44468 4.10884 2.88151 4.64442C2.31834 5.18 2.00195 5.9064 2.00195 6.66382V18.0873C2.00195 18.8447 2.31834 19.5711 2.88151 20.1067C3.44468 20.6422 4.2085 20.9431 5.00494 20.9431H19.0189C19.8153 20.9431 20.5792 20.6422 21.1423 20.1067C21.7055 19.5711 22.0219 18.8447 22.0219 18.0873V6.66382C22.0219 5.9064 21.7055 5.18 21.1423 4.64442C20.5792 4.10884 19.8153 3.80796 19.0189 3.80796ZM20.0199 18.0873C20.0199 18.3397 19.9144 18.5819 19.7267 18.7604C19.539 18.9389 19.2844 19.0392 19.0189 19.0392H5.00494C4.73946 19.0392 4.48485 18.9389 4.29713 18.7604C4.10941 18.5819 4.00395 18.3397 4.00395 18.0873V9.51968H20.0199V18.0873ZM20.0199 7.61577H4.00395V6.66382C4.00395 6.41135 4.10941 6.16921 4.29713 5.99069C4.48485 5.81216 4.73946 5.71187 5.00494 5.71187H19.0189C19.2844 5.71187 19.539 5.81216 19.7267 5.99069C19.9144 6.16921 20.0199 6.41135 20.0199 6.66382V7.61577ZM7.00694 17.1353C7.20491 17.1353 7.39845 17.0795 7.56306 16.9749C7.72767 16.8703 7.85597 16.7216 7.93174 16.5476C8.0075 16.3737 8.02732 16.1823 7.9887 15.9976C7.95008 15.813 7.85474 15.6434 7.71475 15.5102C7.57476 15.3771 7.3964 15.2864 7.20222 15.2497C7.00805 15.213 6.80678 15.2318 6.62387 15.3039C6.44096 15.3759 6.28463 15.4979 6.17464 15.6545C6.06465 15.811 6.00594 15.9951 6.00594 16.1834C6.00594 16.4358 6.1114 16.678 6.29912 16.8565C6.48685 17.035 6.74146 17.1353 7.00694 17.1353Z" fill="#5A5A5A"/>
</svg>
