<svg width="22" height="22" viewBox="0 0 22 22" fill="none" xmlns="http://www.w3.org/2000/svg">
<path d="M10.9854 4.8125C7.63645 4.8125 4.2011 6.75082 1.49664 10.6275C1.41945 10.7393 1.37714 10.8716 1.37508 11.0075C1.37301 11.1434 1.41128 11.2769 1.48504 11.391C3.56301 14.6438 6.95239 17.1875 10.9854 17.1875C14.9747 17.1875 18.4336 14.636 20.5155 11.376C20.5875 11.264 20.6258 11.1338 20.6258 11.0006C20.6258 10.8675 20.5875 10.7372 20.5155 10.6253C18.4289 7.40266 14.9446 4.8125 10.9854 4.8125Z" stroke="#5A5A5A" stroke-width="1.375" stroke-linecap="round" stroke-linejoin="round"/>
<path d="M11 14.4375C12.8985 14.4375 14.4375 12.8985 14.4375 11C14.4375 9.10152 12.8985 7.5625 11 7.5625C9.10152 7.5625 7.5625 9.10152 7.5625 11C7.5625 12.8985 9.10152 14.4375 11 14.4375Z" stroke="#5A5A5A" stroke-width="1.375" stroke-miterlimit="10"/>
</svg>
