<svg width="13" height="21" viewBox="0 0 13 21" fill="none" xmlns="http://www.w3.org/2000/svg">
<path d="M1.02231 11.3312C1.03694 11.3434 1.05644 11.3482 1.07106 11.3604L10.4725 19.8697C11.0014 20.3451 11.8594 20.3451 12.3884 19.8697C12.3933 19.8649 12.3957 19.86 12.3981 19.8551C12.5262 19.7494 12.6296 19.6169 12.7012 19.467C12.7728 19.3172 12.8108 19.1535 12.8125 18.9874V1.9663C12.8098 1.79717 12.7699 1.6307 12.6958 1.47865C12.6217 1.32661 12.5151 1.19269 12.3835 1.08637L12.3884 1.08149C12.1222 0.851464 11.7822 0.724884 11.4304 0.724884C11.0787 0.724884 10.7386 0.851464 10.4725 1.08149L1.02231 9.6103C0.897851 9.71648 0.797906 9.84839 0.729373 9.99694C0.660839 10.1455 0.625347 10.3071 0.625347 10.4707C0.625347 10.6343 0.660839 10.796 0.729373 10.9445C0.797906 11.0931 0.897851 11.225 1.02231 11.3312Z" fill="#67ADFF"/>
</svg>
