<svg width="21" height="21" viewBox="0 0 21 21" fill="none" xmlns="http://www.w3.org/2000/svg">
<path d="M17.1796 15.7086L14.0119 12.5409C14.6664 11.5544 15.0495 10.3733 15.0495 9.10361C15.0495 5.66324 12.2505 2.86427 8.81014 2.86427C5.36977 2.86427 2.5708 5.66324 2.5708 9.10361C2.5708 12.544 5.36977 15.3429 8.81014 15.3429C10.0798 15.3429 11.2609 14.9598 12.2474 14.3053L15.4151 17.4731C15.9018 17.9603 16.6929 17.9603 17.1796 17.4731C17.6669 16.9858 17.6669 16.1959 17.1796 15.7086ZM4.4426 9.10361C4.4426 6.69523 6.40175 4.73607 8.81014 4.73607C11.2185 4.73607 13.1777 6.69523 13.1777 9.10361C13.1777 11.512 11.2185 13.4711 8.81014 13.4711C6.40175 13.4711 4.4426 11.512 4.4426 9.10361Z" fill="#5A5A5A"/>
</svg>
