<svg width="11" height="12" viewBox="0 0 11 12" fill="none" xmlns="http://www.w3.org/2000/svg">
<g clip-path="url(#clip0_143_709)">
<path d="M8.89286 0.740967H1.48214C0.663491 0.740967 0 1.40446 0 2.22311V9.63382C0 10.4525 0.663491 11.116 1.48214 11.116H8.89286C9.71151 11.116 10.375 10.4525 10.375 9.63382V2.22311C10.375 1.40446 9.71035 0.740967 8.89286 0.740967ZM9.26339 9.63382C9.26339 9.83845 9.09748 10.0044 8.89286 10.0044H1.48214C1.27751 10.0044 1.11161 9.83845 1.11161 9.63382V2.22311C1.11161 2.01844 1.27751 1.85257 1.48214 1.85257H8.89286C9.09748 1.85257 9.26339 2.01844 9.26339 2.22311V9.63382ZM7.01702 4.05263L4.44643 6.62554L3.33714 5.53477C3.12003 5.31766 2.76836 5.31766 2.55114 5.53477C2.33391 5.75188 2.33403 6.10354 2.55114 6.32077L4.03328 7.80291C4.16158 7.91315 4.30285 7.96641 4.44643 7.96641C4.59001 7.96641 4.73081 7.91213 4.83943 7.80359L7.80371 4.8393C8.02082 4.62219 8.02082 4.27053 7.80371 4.0533C7.5866 3.83607 7.23471 3.83726 7.01702 4.05263Z" fill="white"/>
</g>
<defs>
<clipPath id="clip0_143_709">
<rect width="10.375" height="11.8571" fill="white"/>
</clipPath>
</defs>
</svg>
