<svg width="21" height="20" viewBox="0 0 21 20" fill="none" xmlns="http://www.w3.org/2000/svg">
<g clip-path="url(#clip0_186_846)">
<path d="M19.6071 7.68557C18.8705 6.47934 17.9413 5.40187 16.8565 4.49593L19.1412 2.21121C19.2899 2.05731 19.3721 1.8512 19.3702 1.63725C19.3684 1.42331 19.2826 1.21865 19.1313 1.06736C18.98 0.916074 18.7753 0.830259 18.5614 0.8284C18.3474 0.826541 18.1413 0.908786 17.9874 1.05742L15.5028 3.54533C13.9625 2.63047 12.2017 2.15365 10.4103 2.16633C5.35861 2.16633 2.47985 5.62442 1.21346 7.68557C0.822226 8.31837 0.61499 9.04763 0.61499 9.7916C0.61499 10.5356 0.822226 11.2648 1.21346 11.8976C1.95009 13.1039 2.87926 14.1813 3.96411 15.0873L1.67938 17.372C1.60145 17.4473 1.53929 17.5373 1.49652 17.6369C1.45376 17.7364 1.43125 17.8435 1.43031 17.9518C1.42937 18.0602 1.45001 18.1676 1.49104 18.2679C1.53207 18.3682 1.59266 18.4593 1.66927 18.5359C1.74588 18.6125 1.83699 18.6731 1.93727 18.7141C2.03755 18.7552 2.145 18.7758 2.25334 18.7749C2.36168 18.7739 2.46876 18.7514 2.56831 18.7086C2.66786 18.6659 2.7579 18.6037 2.83317 18.5258L5.32352 16.0354C6.86185 16.9501 8.6206 17.4278 10.4103 17.4169C15.462 17.4169 18.3407 13.9588 19.6071 11.8976C19.9984 11.2648 20.2056 10.5356 20.2056 9.7916C20.2056 9.04763 19.9984 8.31837 19.6071 7.68557ZM2.60388 11.0433C2.37144 10.6672 2.24832 10.2338 2.24832 9.7916C2.24832 9.34945 2.37144 8.91602 2.60388 8.5399C3.69239 6.7725 6.15255 3.79828 10.4103 3.79828C11.765 3.79069 13.1008 4.11719 14.2992 4.74889L12.6567 6.39144C11.8733 5.87134 10.9341 5.63829 9.99842 5.73184C9.06277 5.8254 8.18829 6.23978 7.52339 6.90469C6.85848 7.5696 6.44409 8.44407 6.35054 9.37972C6.25699 10.3154 6.49004 11.2546 7.01014 12.038L5.12524 13.9229C4.12576 13.1148 3.27285 12.1407 2.60388 11.0433ZM12.8582 9.7916C12.8582 10.4408 12.6003 11.0635 12.1412 11.5225C11.6822 11.9816 11.0595 12.2395 10.4103 12.2395C10.0468 12.2381 9.68832 12.1544 9.36177 11.9947L12.6134 8.74307C12.7731 9.06963 12.8568 9.4281 12.8582 9.7916ZM7.96238 9.7916C7.96238 9.14237 8.22028 8.51973 8.67936 8.06066C9.13843 7.60159 9.76107 7.34368 10.4103 7.34368C10.7738 7.34509 11.1323 7.42878 11.4588 7.58847L8.20717 10.8401C8.04748 10.5136 7.96379 10.1551 7.96238 9.7916ZM18.2167 11.0433C17.1282 12.8107 14.668 15.7849 10.4103 15.7849C9.05556 15.7925 7.71984 15.466 6.52137 14.8343L8.16392 13.1918C8.94731 13.7119 9.88652 13.9449 10.8222 13.8514C11.7578 13.7578 12.6323 13.3434 13.2972 12.6785C13.9621 12.0136 14.3765 11.1391 14.4701 10.2035C14.5636 9.26782 14.3306 8.32862 13.8105 7.54523L15.6954 5.66033C16.6948 6.46837 17.5477 7.44245 18.2167 8.5399C18.4492 8.91602 18.5723 9.34945 18.5723 9.7916C18.5723 10.2338 18.4492 10.6672 18.2167 11.0433Z" fill="#5A5A5A"/>
</g>
<defs>
<clipPath id="clip0_186_846">
<rect width="19.5834" height="19.5834" fill="white" transform="translate(0.618652)"/>
</clipPath>
</defs>
</svg>
