<svg width="27" height="27" viewBox="0 0 27 27" fill="none" xmlns="http://www.w3.org/2000/svg">
<path d="M7.87488 20.25H19.1249V18H7.87488V20.25Z" fill="#BAC4CE"/>
<path d="M19.1249 15.75H7.87488V13.5H19.1249V15.75Z" fill="#BAC4CE"/>
<path d="M7.87488 11.25H12.3749V9H7.87488V11.25Z" fill="#BAC4CE"/>
<path fill-rule="evenodd" clip-rule="evenodd" d="M6.75 2.25C4.88604 2.25 3.375 3.76104 3.375 5.625V21.375C3.375 23.239 4.88604 24.75 6.75 24.75H20.25C22.114 24.75 23.625 23.239 23.625 21.375V10.125C23.625 5.77576 20.0993 2.25 15.75 2.25H6.75ZM6.75 4.5H14.625V10.125H21.375V21.375C21.375 21.9963 20.8713 22.5 20.25 22.5H6.75C6.12868 22.5 5.625 21.9963 5.625 21.375V5.625C5.625 5.00369 6.12868 4.5 6.75 4.5ZM16.875 4.61252C18.6877 4.98049 20.184 6.22019 20.907 7.875H16.875V4.61252Z" fill="#BAC4CE"/>
</svg>
