<svg width="20" height="20" viewBox="0 0 20 20" fill="none" xmlns="http://www.w3.org/2000/svg">
<g clip-path="url(#clip0_190_936)">
<path d="M15.7134 12.1867C16.6388 10.4179 16.9001 8.37608 16.4498 6.43122C15.9995 4.48635 14.8674 2.76712 13.2587 1.58501C11.65 0.40291 9.67113 -0.163859 7.68056 -0.0126023C5.68998 0.138655 3.81943 0.997931 2.40783 2.40954C0.996222 3.82114 0.136946 5.69169 -0.0143112 7.68227C-0.165568 9.67284 0.401201 11.6518 1.5833 13.2604C2.76541 14.8691 4.48464 16.0012 6.42951 16.4515C8.37437 16.9018 10.4162 16.6405 12.185 15.7151L15.73 19.2609C16.1975 19.7294 16.8319 19.9929 17.4936 19.9936C18.1554 19.9943 18.7903 19.7321 19.2588 19.2647C19.7272 18.7972 19.9908 18.1628 19.9915 17.5011C19.9922 16.8393 19.73 16.2044 19.2625 15.7359L15.7134 12.1867ZM1.66671 8.33341C1.66671 7.01487 2.0577 5.72594 2.79024 4.62961C3.52278 3.53328 4.56397 2.6788 5.78215 2.17422C7.00032 1.66963 8.34077 1.53761 9.63397 1.79485C10.9272 2.05208 12.1151 2.68702 13.0474 3.61937C13.9798 4.55172 14.6147 5.73961 14.8719 7.03281C15.1292 8.32602 14.9972 9.66646 14.4926 10.8846C13.988 12.1028 13.1335 13.144 12.0372 13.8765C10.9408 14.6091 9.65191 15.0001 8.33337 15.0001C6.56587 14.9981 4.87133 14.2951 3.62152 13.0453C2.37171 11.7955 1.66869 10.1009 1.66671 8.33341ZM18.0834 18.0901C17.9276 18.2428 17.7182 18.3283 17.5 18.3283C17.2819 18.3283 17.0725 18.2428 16.9167 18.0901L13.6109 14.7834C14.0373 14.4321 14.4281 14.0397 14.7775 13.6117L18.0875 16.9167C18.166 16.9931 18.2282 17.0846 18.2704 17.1856C18.3127 17.2866 18.3341 17.3951 18.3334 17.5046C18.3327 17.6141 18.3099 17.7223 18.2663 17.8228C18.2228 17.9232 18.1594 18.0139 18.08 18.0892L18.0834 18.0901Z" fill="#BAC4CE"/>
<path d="M8.33337 3.33325C7.0077 3.33458 5.7367 3.86179 4.7993 4.79918C3.86191 5.73658 3.3347 7.00758 3.33337 8.33325C3.33337 8.55427 3.42117 8.76623 3.57745 8.92251C3.73373 9.07879 3.94569 9.16659 4.16671 9.16659C4.38772 9.16659 4.59968 9.07879 4.75596 8.92251C4.91224 8.76623 5.00004 8.55427 5.00004 8.33325C5.00004 7.4492 5.35123 6.60135 5.97635 5.97623C6.60147 5.35111 7.44932 4.99992 8.33337 4.99992C8.55439 4.99992 8.76635 4.91212 8.92263 4.75584C9.07891 4.59956 9.16671 4.3876 9.16671 4.16659C9.16671 3.94557 9.07891 3.73361 8.92263 3.57733C8.76635 3.42105 8.55439 3.33325 8.33337 3.33325Z" fill="#BAC4CE"/>
</g>
<defs>
<clipPath id="clip0_190_936">
<rect width="20" height="20" fill="white"/>
</clipPath>
</defs>
</svg>
