<svg width="26" height="25" viewBox="0 0 26 25" fill="none" xmlns="http://www.w3.org/2000/svg">
<path d="M16.4833 19.8722L13.4051 18.1496L10.3269 19.8722L11.1436 16.5465L8.43184 14.3161L12.0021 14.0274L13.4051 10.9108L14.8081 14.0274L18.3784 14.3161L15.6667 16.5465L16.4833 19.8722ZM21.7812 2.44727H5.02907V4.43869L10.1175 8.06307C8.34223 8.78356 6.88306 10.065 5.9868 11.6908C5.09054 13.3165 4.81219 15.1867 5.19883 16.9851C5.58546 18.7836 6.61336 20.3998 8.10867 21.5605C9.60398 22.7212 11.4749 23.3552 13.4051 23.3552C15.3353 23.3552 17.2063 22.7212 18.7016 21.5605C20.1969 20.3998 21.2248 18.7836 21.6114 16.9851C21.9981 15.1867 21.7197 13.3165 20.8235 11.6908C19.9272 10.065 18.468 8.78356 16.6927 8.06307L21.7812 4.43869V2.44727ZM19.6872 15.3915C19.6877 16.5229 19.3505 17.6312 18.7146 18.5874C18.0787 19.5437 17.1704 20.3085 16.0953 20.7931C15.0203 21.2776 13.8226 21.4618 12.6417 21.3243C11.4609 21.1868 10.3453 20.7333 9.42489 20.0164C8.50446 19.2996 7.817 18.3489 7.44248 17.275C7.06796 16.2012 7.02179 15.0482 7.30933 13.9504C7.59688 12.8525 8.20632 11.8549 9.06674 11.0735C9.92717 10.2922 11.0032 9.75923 12.1697 9.53673C12.9848 9.37737 13.8255 9.37737 14.6406 9.53673C16.0634 9.80813 17.3435 10.5396 18.2635 11.6069C19.1835 12.6742 19.6865 14.0115 19.6872 15.3915ZM14.0648 7.42582H12.7455L8.55748 4.43869H18.3365L14.0648 7.42582Z" fill="#BAC4CE"/>
</svg>
