<svg width="28" height="28" viewBox="0 0 28 28" fill="none" xmlns="http://www.w3.org/2000/svg">
<path d="M7.00051 7.14919L7 18.375C7 20.6946 8.80519 22.5926 11.0873 22.7407L11.375 22.75L19.1002 22.7512C18.7395 23.7701 17.7675 24.5 16.625 24.5H10.5C7.60051 24.5 5.25 22.1495 5.25 19.25V9.625C5.25 8.48187 5.9807 7.5094 7.00051 7.14919ZM20.125 3.5C21.5747 3.5 22.75 4.67525 22.75 6.125V18.375C22.75 19.8247 21.5747 21 20.125 21H11.375C9.92525 21 8.75 19.8247 8.75 18.375V6.125C8.75 4.67525 9.92525 3.5 11.375 3.5H20.125Z" fill="#72777A"/>
</svg>
