<svg width="31" height="31" viewBox="0 0 31 31" fill="none" xmlns="http://www.w3.org/2000/svg">
<path d="M22.4164 25.7682C22.2687 25.7687 22.1232 25.733 21.9926 25.6641L15.5601 22.2813L9.12638 25.6641C8.97644 25.7425 8.80756 25.7775 8.6388 25.7651C8.47003 25.7527 8.30809 25.6934 8.17124 25.5938C8.03438 25.4943 7.92805 25.3585 7.86424 25.2018C7.80043 25.0451 7.78167 24.8736 7.81009 24.7068L9.03919 17.5429L3.83216 12.4691C3.71073 12.3508 3.62482 12.2009 3.58415 12.0364C3.54348 11.8718 3.54967 11.6992 3.60202 11.538C3.65437 11.3767 3.7508 11.2334 3.88039 11.1241C4.00998 11.0149 4.16756 10.944 4.3353 10.9197L11.5289 9.87465L14.7457 3.35617C14.8207 3.20424 14.9368 3.07632 15.0807 2.98688C15.2246 2.89744 15.3906 2.85004 15.5601 2.85004C15.7295 2.85004 15.8956 2.89744 16.0395 2.98688C16.1834 3.07632 16.2994 3.20424 16.3744 3.35617L19.5913 9.87465L26.7843 10.9197C26.9521 10.944 27.1097 11.0147 27.2394 11.1239C27.369 11.2332 27.4656 11.3765 27.518 11.5377C27.5704 11.699 27.5766 11.8716 27.536 12.0362C27.4954 12.2008 27.4095 12.3508 27.288 12.4691L22.081 17.5429L23.3101 24.7068C23.3324 24.8371 23.326 24.9707 23.2913 25.0983C23.2566 25.2259 23.1945 25.3443 23.1092 25.4454C23.024 25.5465 22.9178 25.6277 22.7979 25.6835C22.678 25.7393 22.5474 25.7682 22.4152 25.7682H22.4164ZM6.41751 12.4527L10.6467 16.5754C10.7519 16.6779 10.8306 16.8044 10.8762 16.944C10.9217 17.0836 10.9327 17.2322 10.9083 17.377L9.90985 23.198L15.1363 20.4516C15.2669 20.3827 15.4124 20.3466 15.5601 20.3466C15.7078 20.3466 15.8533 20.3827 15.9839 20.4516L21.2115 23.1998L20.2119 17.377C20.1871 17.232 20.1978 17.0831 20.2433 16.9431C20.2887 16.8031 20.3675 16.6763 20.4729 16.5736L24.7027 12.4527L18.8581 11.6051C18.7124 11.5839 18.5741 11.5276 18.455 11.4412C18.336 11.3547 18.2397 11.2405 18.1745 11.1086L15.5601 5.81256L12.9463 11.1086C12.881 11.2406 12.7847 11.3548 12.6655 11.4413C12.5463 11.5278 12.4078 11.584 12.2621 11.6051L6.41751 12.4527Z" fill="#268AFF"/>
<path d="M11.6524 10.3551C11.6524 10.3551 7.0441 10.8655 3.96993 11.2067C3.69285 11.2403 3.44785 11.4255 3.35597 11.7069C3.2641 11.9884 3.35597 12.2815 3.56014 12.4667C5.84389 14.5507 9.27535 17.6715 9.27535 17.6715C9.27243 17.6715 8.33326 22.2113 7.7091 25.2403C7.6566 25.5144 7.75576 25.8046 7.99493 25.9782C8.23264 26.1517 8.53889 26.1546 8.77951 26.019C11.4687 24.4907 15.4966 22.1924 15.4966 22.1924C15.4966 22.1924 19.526 24.4907 22.2108 26.0205C22.4558 26.1546 22.762 26.1517 22.9997 25.9782C23.2389 25.8046 23.3381 25.5144 23.2841 25.2417C22.6599 22.2113 21.7222 17.6715 21.7222 17.6715C21.7222 17.6715 25.1537 14.5507 27.4374 12.4711C27.6416 12.2801 27.732 11.9869 27.6416 11.7069C27.5512 11.4269 27.3062 11.2417 27.0291 11.2097C23.9549 10.8655 19.3451 10.3551 19.3451 10.3551C19.3451 10.3551 17.4347 6.12882 16.1616 3.31132C16.042 3.05903 15.7912 2.88257 15.4966 2.88257C15.202 2.88257 14.9497 3.06049 14.836 3.31132C13.5614 6.12882 11.6524 10.3551 11.6524 10.3551Z" fill="#268AFF"/>
</svg>
