<svg width="30" height="30" viewBox="0 0 30 30" fill="none" xmlns="http://www.w3.org/2000/svg">
<path d="M27.3985 12.6581C27.4988 11.9746 27.026 11.3392 26.3426 11.2389L19.2784 10.2062L16.1217 3.7731C16.008 3.57687 15.8449 3.41391 15.6485 3.30046C15.0284 2.94211 14.2352 3.15421 13.8768 3.77432L10.7213 10.2062L3.65705 11.239C3.38697 11.2786 3.13734 11.4055 2.94607 11.6003C2.46214 12.0933 2.46954 12.8852 2.96247 13.3691L8.07844 18.385L6.87116 25.4651C6.85972 25.5328 6.85384 25.6014 6.85369 25.6702C6.85178 26.362 7.41102 26.9243 8.10285 26.9263C8.30679 26.926 8.50759 26.8757 8.68757 26.7798L14.9998 23.4424L21.3109 26.7786C21.5548 26.908 21.8346 26.9531 22.1068 26.9067C22.7871 26.7907 23.2445 26.1453 23.1285 25.4651L21.9212 18.385L27.0384 13.3678C27.2325 13.1768 27.3589 12.9276 27.3985 12.6581ZM20.8128 17.7209C20.6665 17.8644 20.5995 18.0704 20.6334 18.2726L21.8956 25.6737L15.2916 22.1825C15.1087 22.0872 14.891 22.0872 14.7081 22.1825L8.10407 25.675L9.3662 18.2727C9.40015 18.0705 9.33317 17.8645 9.18676 17.7209L3.83764 12.4768L11.2278 11.3965C11.4319 11.366 11.6079 11.2373 11.699 11.0522L14.9998 4.32501L18.3005 11.0522C18.3916 11.2372 18.5678 11.3659 18.7718 11.3964L26.1632 12.4755L20.8128 17.7209Z" fill="#268AFF"/>
</svg>
