<svg width="43" height="42" viewBox="0 0 43 42" fill="none" xmlns="http://www.w3.org/2000/svg">
<rect x="0.818115" width="42" height="42" rx="21" fill="black"/>
<g clip-path="url(#clip0_1271_1070)">
<path d="M21.5117 16.0767C22.2397 16.0767 23.1523 15.5602 23.6958 14.8715C24.188 14.2473 24.5469 13.3757 24.5469 12.504C24.5469 12.3856 24.5366 12.2673 24.5161 12.1704C23.7061 12.2027 22.7319 12.7408 22.1475 13.4617C21.686 14.0106 21.2656 14.8715 21.2656 15.7539C21.2656 15.883 21.2861 16.0121 21.2964 16.0552C21.3477 16.0659 21.4297 16.0767 21.5117 16.0767ZM18.9482 29.0977C19.9429 29.0977 20.3838 28.3982 21.6245 28.3982C22.8857 28.3982 23.1626 29.0762 24.27 29.0762C25.3569 29.0762 26.085 28.0216 26.772 26.9885C27.541 25.8048 27.8589 24.6426 27.8794 24.5888C27.8076 24.5672 25.7261 23.6741 25.7261 21.1667C25.7261 18.993 27.3667 18.0137 27.459 17.9384C26.3721 16.3027 24.7212 16.2596 24.27 16.2596C23.0498 16.2596 22.0552 17.0344 21.4297 17.0344C20.7529 17.0344 19.8608 16.3027 18.8047 16.3027C16.7949 16.3027 14.7544 18.046 14.7544 21.3389C14.7544 23.3835 15.5132 25.5465 16.4463 26.9455C17.2461 28.1292 17.9434 29.0977 18.9482 29.0977Z" fill="white"/>
</g>
<defs>
<clipPath id="clip0_1271_1070">
<rect width="14.1273" height="17.6591" fill="white" transform="translate(14.7544 12.1704)"/>
</clipPath>
</defs>
</svg>
