<svg width="43" height="42" viewBox="0 0 43 42" fill="none" xmlns="http://www.w3.org/2000/svg">
<rect x="0.45459" width="42" height="42" rx="21" fill="#F2F2F2"/>
<path fill-rule="evenodd" clip-rule="evenodd" d="M30.0073 21.2024C30.0073 20.5707 29.9506 19.9633 29.8453 19.3801H21.4546V22.8263H26.2493C26.0428 23.94 25.4151 24.8835 24.4715 25.5152V27.7506H27.3508C29.0354 26.1996 30.0073 23.9157 30.0073 21.2024Z" fill="#4285F4"/>
<path fill-rule="evenodd" clip-rule="evenodd" d="M21.4547 29.9092C23.8601 29.9092 25.8768 29.1115 27.3509 27.7508L24.4716 25.5154C23.6738 26.05 22.6533 26.3658 21.4547 26.3658C19.1342 26.3658 17.1702 24.7987 16.4696 22.6929H13.4932V25.0011C14.9591 27.9128 17.972 29.9092 21.4547 29.9092Z" fill="#34A853"/>
<path fill-rule="evenodd" clip-rule="evenodd" d="M16.4695 22.6927C16.2913 22.1582 16.19 21.5872 16.19 21C16.19 20.4128 16.2913 19.8418 16.4695 19.3073V16.999H13.493C12.8896 18.2018 12.5454 19.5624 12.5454 21C12.5454 22.4376 12.8896 23.7983 13.493 25.001L16.4695 22.6927Z" fill="#FBBC05"/>
<path fill-rule="evenodd" clip-rule="evenodd" d="M21.4547 15.6342C22.7627 15.6342 23.937 16.0837 24.8604 16.9665L27.4156 14.4112C25.8728 12.9736 23.8561 12.0908 21.4547 12.0908C17.972 12.0908 14.9591 14.0873 13.4932 16.9989L16.4696 19.3072C17.1702 17.2014 19.1342 15.6342 21.4547 15.6342Z" fill="#EA4335"/>
</svg>
