<svg width="31" height="14" viewBox="0 0 31 14" fill="none" xmlns="http://www.w3.org/2000/svg">
<rect x="1" width="30" height="14" rx="6" fill="#E5EFFF"/>
<path d="M14.543 3.04102V8.28516H13.459V6.12695H11.9551V5.23828H13.459V3.04102H14.543ZM11.5547 8.50977C13.4297 8.50977 14.5723 9.125 14.5723 10.1895C14.5723 11.2539 13.4297 11.8691 11.5547 11.8691C9.68945 11.8691 8.54688 11.2539 8.55664 10.1895C8.54688 9.125 9.68945 8.50977 11.5547 8.50977ZM11.5547 9.33984C10.3242 9.33984 9.63086 9.63281 9.63086 10.1895C9.63086 10.7363 10.3242 11.0293 11.5547 11.0293C12.7852 11.0293 13.4883 10.7363 13.4883 10.1895C13.4883 9.63281 12.7852 9.33984 11.5547 9.33984ZM10.3926 4.55469C10.3926 5.62891 11.1055 6.71289 12.4727 7.17188L11.9258 8.03125C10.9443 7.69922 10.2461 7.02539 9.86523 6.19531C9.47461 7.1377 8.7373 7.88965 7.6875 8.26562L7.12109 7.40625C8.53711 6.91797 9.28906 5.72656 9.28906 4.56445V4.49609H7.45312V3.61719H12.2188V4.49609H10.3926V4.55469ZM22.7559 3.04102V5.00391H23.9863V5.90234H22.7559V7.75781H21.6719V3.04102H22.7559ZM20.0898 3.58789V4.4668H17.2383V6.63477C18.8984 6.62988 19.8213 6.58105 20.8711 6.35156L20.9883 7.23047C19.8359 7.47461 18.8008 7.52344 16.877 7.52344H16.1641V3.58789H20.0898ZM18.1172 8.19727V9.10547H21.6719V8.19727H22.7559V11.7422H17.0332V8.19727H18.1172ZM18.1172 10.8633H21.6719V9.96484H18.1172V10.8633Z" fill="#268AFF"/>
</svg>
