<svg width="31" height="18" viewBox="0 0 31 18" fill="none" xmlns="http://www.w3.org/2000/svg">
<rect x="1" y="2" width="30" height="14" rx="6" fill="#FFECE5"/>
<path d="M11.1641 4.71924C11.7923 4.71924 12.3555 4.81852 12.8535 5.01709C13.3548 5.21566 13.7471 5.49561 14.0303 5.85693C14.3135 6.21826 14.4551 6.6333 14.4551 7.10205C14.4551 7.53499 14.3379 7.92074 14.1035 8.25928C13.8724 8.59782 13.5485 8.87126 13.1318 9.07959C12.7184 9.28467 12.2415 9.41488 11.7012 9.47021V11.0864H15.2168V11.9751H7.15039V11.0864H10.627V9.47021C10.0898 9.41488 9.61458 9.28467 9.20117 9.07959C8.78776 8.87126 8.46549 8.59782 8.23438 8.25928C8.00326 7.92074 7.88932 7.53499 7.89258 7.10205C7.88932 6.6333 8.02767 6.21826 8.30762 5.85693C8.59082 5.49561 8.98145 5.21566 9.47949 5.01709C9.97754 4.81852 10.5391 4.71924 11.1641 4.71924ZM11.1641 5.59814C10.7344 5.59489 10.3519 5.65511 10.0166 5.77881C9.68132 5.89925 9.41927 6.07503 9.23047 6.30615C9.04492 6.53402 8.95378 6.79932 8.95703 7.10205C8.95378 7.41455 9.04492 7.68636 9.23047 7.91748C9.41927 8.14535 9.68132 8.32113 10.0166 8.44482C10.3519 8.56527 10.7344 8.62549 11.1641 8.62549C11.6003 8.62549 11.986 8.56527 12.3213 8.44482C12.6598 8.32113 12.9219 8.14535 13.1074 7.91748C13.2962 7.68636 13.3906 7.41455 13.3906 7.10205C13.3906 6.79606 13.2962 6.52913 13.1074 6.30127C12.9186 6.0734 12.6549 5.89925 12.3164 5.77881C11.9811 5.65511 11.597 5.59489 11.1641 5.59814ZM22.7559 6.18408H23.9863V7.08252H22.7559V8.93799H21.6719V4.22119H22.7559V6.18408ZM20.0898 5.64697H17.2383V7.81494C18.1107 7.81169 18.8073 7.79215 19.3281 7.75635C19.8522 7.71729 20.3665 7.64242 20.8711 7.53174L20.9883 8.41064C20.4349 8.52783 19.8636 8.60596 19.2744 8.64502C18.6885 8.68408 17.8893 8.70361 16.877 8.70361H16.1641V4.76807H20.0898V5.64697ZM18.1172 10.2856H21.6719V9.37744H22.7559V12.9224H17.0332V9.37744H18.1172V10.2856ZM21.6719 12.0435V11.145H18.1172V12.0435H21.6719Z" fill="#FF5526"/>
</svg>
