<svg width="16" height="14" viewBox="0 0 16 14" fill="none" xmlns="http://www.w3.org/2000/svg">
<path d="M11.2397 12.1C10.258 12.5761 9.1497 12.8304 8 12.8304C4.3181 12.8304 1.33333 10.2316 1.33333 7.02579C1.33333 3.82 4.3181 1.22119 8 1.22119C11.6819 1.22119 14.6667 3.82 14.6667 7.02579C14.6667 8.02683 14.3747 8.99182 13.8278 9.84653L14.0631 12.3049L11.2397 12.1ZM10.9277 10.9125L12.6035 11.034L12.4639 9.57494L12.5747 9.41437C13.0687 8.69892 13.3333 7.87996 13.3333 7.02579C13.3333 4.46116 10.9455 2.38211 8 2.38211C5.05448 2.38211 2.66666 4.46116 2.66666 7.02579C2.66666 9.59042 5.05448 11.6695 8 11.6695C8.98102 11.6695 9.92161 11.439 10.7433 11.009L10.9277 10.9125ZM8.00021 9.92713C7.6319 9.92713 7.33333 9.66725 7.33333 9.34667C7.33333 9.02609 7.6319 8.76621 8.00021 8.76621C8.36852 8.76621 8.6671 9.02609 8.6671 9.34667C8.6671 9.66725 8.36852 9.92713 8.00021 9.92713ZM8.66666 8.18671H7.33333V7.60625C7.33333 7.17827 7.58849 6.85193 7.98499 6.57805C8.10427 6.49566 8.14011 6.47498 8.35597 6.35583C8.54835 6.24964 8.66666 6.06647 8.66666 5.86487C8.66666 5.54429 8.36819 5.28441 8 5.28441C7.63181 5.28441 7.33333 5.54429 7.33333 5.86487H6C6 4.90313 6.89543 4.12349 8 4.12349C9.10456 4.12349 10 4.90313 10 5.86487C10 6.46829 9.64403 7.0194 9.06987 7.33632C8.90115 7.42945 8.88043 7.4414 8.81365 7.48753C8.70419 7.56314 8.66666 7.61114 8.66666 7.60625V8.18671Z" fill="#268AFF"/>
</svg>
