<svg width="19" height="17" viewBox="0 0 19 17" fill="none" xmlns="http://www.w3.org/2000/svg">
<path d="M16.9753 2.39011C16.7912 2.25547 16.5685 2.16701 16.3311 2.13423C16.0936 2.10144 15.8504 2.12556 15.6275 2.204L2.02469 6.94463C1.8264 7.01635 1.65695 7.13761 1.53775 7.29311C1.41855 7.44861 1.35493 7.63137 1.35493 7.81832C1.35493 8.00527 1.41855 8.18803 1.53775 8.34353C1.65695 8.49902 1.8264 8.62028 2.02469 8.692L2.90344 9.00735C3.04832 9.06072 3.21161 9.06184 3.35745 9.01047C3.50328 8.95909 3.61974 8.85943 3.68125 8.73336C3.71142 8.67058 3.72706 8.60323 3.72727 8.53517C3.72748 8.46711 3.71225 8.39969 3.68247 8.33677C3.65268 8.27385 3.60891 8.21667 3.55368 8.16851C3.49845 8.12035 3.43284 8.08216 3.36062 8.05612L2.7075 7.82349L16.0728 3.17074C16.0934 3.15977 16.117 3.15396 16.1411 3.15396C16.1652 3.15396 16.1888 3.15977 16.2094 3.17074C16.2288 3.18507 16.2434 3.20365 16.2517 3.22456C16.2601 3.24546 16.2619 3.26794 16.2569 3.28964L13.8166 13.2052C13.8086 13.2405 13.7901 13.2734 13.763 13.3006C13.736 13.3278 13.7012 13.3483 13.6622 13.3603C13.6239 13.3735 13.5823 13.3776 13.5416 13.3721C13.5009 13.3667 13.4626 13.3519 13.4306 13.3292L8.68062 10.1033L13.3297 6.01409C13.429 5.92437 13.4878 5.80644 13.4951 5.68201C13.5025 5.55757 13.4581 5.435 13.3699 5.33685C13.2817 5.23869 13.1558 5.17157 13.0153 5.14782C12.8749 5.12408 12.7292 5.14531 12.6053 5.20761L5.78906 8.72302C5.71335 8.75281 5.64567 8.7961 5.59039 8.8501C5.5351 8.90409 5.49345 8.96759 5.46811 9.03648C5.44278 9.10537 5.43434 9.17813 5.44332 9.25004C5.45231 9.32195 5.47853 9.39142 5.52029 9.45395C5.56205 9.51649 5.61841 9.5707 5.68574 9.61308C5.75307 9.65545 5.82986 9.68506 5.91116 9.69998C5.99245 9.71489 6.07644 9.71479 6.15768 9.69967C6.23892 9.68455 6.31562 9.65476 6.38281 9.61221L9.25062 8.13884L7.85531 9.3744C7.72766 9.47883 7.62813 9.60654 7.56384 9.7484C7.49955 9.89026 7.47209 10.0427 7.48344 10.1949C7.49479 10.3471 7.54466 10.4952 7.62948 10.6286C7.71431 10.7621 7.83198 10.8775 7.97406 10.9667L12.7241 14.1461C12.9741 14.314 13.2811 14.405 13.5969 14.4045C13.765 14.4035 13.9317 14.3773 14.0897 14.327C14.3165 14.2561 14.5186 14.1357 14.6766 13.9773C14.8347 13.8189 14.9433 13.6278 14.9922 13.4223L17.4147 3.51711C17.4661 3.31223 17.4524 3.09901 17.3749 2.90043C17.2975 2.70184 17.1594 2.5254 16.9753 2.39011Z" fill="#268AFF"/>
</svg>
