<svg width="14" height="14" viewBox="0 0 14 14" fill="none" xmlns="http://www.w3.org/2000/svg">
<g id="Group">
<g id="Group_2">
<path id="Vector" d="M4.7893 4.29519L4.84434 4.79215L5.12764 4.76077L5.24497 4.50101L4.7893 4.29519ZM4.7893 4.29519L5.24498 4.50098L5.24502 4.5009L5.24517 4.50057L5.24577 4.49925L5.24814 4.494L5.25747 4.47334L5.29354 4.39348L5.42785 4.09616L5.88515 3.08402C6.22659 2.3284 6.64775 1.39656 7.00015 0.617453L8.11491 3.08407L8.57243 4.09626L8.70683 4.39359L8.74294 4.47346L8.75228 4.49412L8.75465 4.49938L8.75525 4.5007L8.7554 4.50103L8.75544 4.50111L9.21106 4.29519M4.7893 4.29519L4.84431 4.79215L4.84422 4.79216L4.84386 4.7922L4.84241 4.79236L4.83669 4.793L4.81416 4.79549L4.72708 4.80514L4.40286 4.84106L3.29906 4.96336L0.608672 5.2617C1.24011 5.83772 1.99604 6.52612 2.60923 7.08427L3.43073 7.83184L3.67208 8.05139L3.73691 8.11036L3.75367 8.12561L3.75793 8.12949L3.75901 8.13046L3.75928 8.13071L3.75934 8.13077L3.42295 8.50069M9.21106 4.29519L9.15607 4.79216L9.15616 4.79217L9.15652 4.79221L9.15796 4.79237L9.16368 4.793L9.18621 4.79549L9.27331 4.80514L9.5976 4.84108L10.7016 4.96356C11.526 5.05509 12.5425 5.16814 13.3925 5.2632C12.7609 5.83834 12.0046 6.52648 11.3912 7.08449L10.5697 7.83184L10.3283 8.05138L10.2635 8.11035L10.2467 8.12561L10.2424 8.12948L10.2414 8.13046L10.2411 8.13071L10.241 8.13077L10.5774 8.50069M9.21106 4.29519L8.75545 4.50114L8.87282 4.76079L9.15604 4.79215L9.21106 4.29519ZM3.42295 8.50069L3.91251 8.60231L3.9125 8.6024L3.91242 8.60275L3.91213 8.60417L3.91096 8.60981L3.90635 8.632L3.88856 8.71778L3.82232 9.03715L3.59696 10.1245C3.42883 10.9361 3.22169 11.937 3.04905 12.7742C3.79223 12.3517 4.68034 11.8457 5.40047 11.4352L6.36529 10.8851L6.64866 10.7234L6.72476 10.68L6.74444 10.6688L6.74944 10.6659L6.7507 10.6652L6.75102 10.665L6.7511 10.665L6.99892 11.0993M3.42295 8.50069L3.75937 8.13079L3.97051 8.32282L3.91252 8.60228L3.42295 8.50069ZM6.99892 11.0993L7.24668 10.665L7.24676 10.665L7.24708 10.6652L7.24834 10.6659L7.25334 10.6688L7.27304 10.68L7.34918 10.7234L7.63264 10.8851L8.59755 11.4354C9.318 11.8462 10.2064 12.3528 10.949 12.7759C10.7764 11.938 10.5697 10.9363 10.4021 10.1242L10.1776 9.03675L10.1116 8.71734L10.0939 8.63155L10.0893 8.60936L10.0881 8.60372L10.0878 8.6023L10.0878 8.60195L10.0878 8.60186L10.5774 8.50069M6.99892 11.0993L6.75112 10.665L6.99888 10.5236L7.24665 10.6649L6.99892 11.0993ZM10.5774 8.50069L10.0877 8.60183L10.0301 8.32262L10.241 8.13079L10.5774 8.50069Z" stroke="#268AFF"/>
</g>
</g>
</svg>
