<svg width="14" height="14" viewBox="0 0 14 14" fill="none" xmlns="http://www.w3.org/2000/svg">
<g id="Frame" clip-path="url(#clip0_434_2009)">
<path id="Vector" d="M1.05551 3.71875L5.86254 12.0313C5.97763 12.2312 6.14337 12.3972 6.34307 12.5127C6.54276 12.6282 6.76937 12.689 7.00004 12.689C7.23072 12.689 7.45733 12.6282 7.65702 12.5127C7.85672 12.3972 8.02246 12.2312 8.13754 12.0313L12.9446 3.71875C13.0614 3.51985 13.1234 3.29358 13.1245 3.06293C13.1255 2.83228 13.0655 2.60546 12.9505 2.40551C12.8355 2.20556 12.6697 2.03959 12.4698 1.92446C12.27 1.80933 12.0432 1.74914 11.8125 1.75H2.18754C1.95689 1.74914 1.73012 1.80933 1.53026 1.92446C1.33039 2.03959 1.16455 2.20556 1.04958 2.40551C0.934607 2.60546 0.874594 2.83228 0.875636 3.06293C0.876678 3.29358 0.938738 3.51985 1.05551 3.71875Z" fill="#268AFF"/>
</g>
<defs>
<clipPath id="clip0_434_2009">
<rect width="14" height="14" fill="white" transform="matrix(-1 0 0 -1 14 14)"/>
</clipPath>
</defs>
</svg>
