<svg width="14" height="14" viewBox="0 0 14 14" fill="none" xmlns="http://www.w3.org/2000/svg">
<g clip-path="url(#clip0_434_2016)">
<path d="M3.71874 12.9444L12.0312 8.13741C12.2312 8.02233 12.3972 7.85659 12.5127 7.65689C12.6282 7.45719 12.6889 7.23059 12.6889 6.99991C12.6889 6.76923 12.6282 6.54263 12.5127 6.34293C12.3972 6.14323 12.2312 5.97749 12.0312 5.86241L3.71874 1.05538C3.51983 0.938603 3.29357 0.876544 3.06292 0.875502C2.83227 0.87446 2.60545 0.934472 2.40549 1.04945C2.20554 1.16442 2.03957 1.33026 1.92444 1.53012C1.80931 1.72999 1.74913 1.95676 1.74999 2.18741V11.8124C1.74913 12.0431 1.80931 12.2698 1.92444 12.4697C2.03957 12.6696 2.20554 12.8354 2.40549 12.9504C2.60545 13.0653 2.83227 13.1254 3.06292 13.1243C3.29357 13.1233 3.51983 13.0612 3.71874 12.9444Z" fill="#268AFF"/>
</g>
<defs>
<clipPath id="clip0_434_2016">
<rect width="14" height="14" fill="white" transform="matrix(0 1 -1 0 14 0)"/>
</clipPath>
</defs>
</svg>
