<svg width="14" height="14" viewBox="0 0 14 14" fill="none" xmlns="http://www.w3.org/2000/svg">
<path d="M4.7893 4.29519C4.7893 4.29519 2.14043 4.58858 0.3734 4.78473C0.214133 4.80401 0.0733071 4.91046 0.0204974 5.07225C-0.0323123 5.23403 0.0204973 5.40252 0.137852 5.50897C1.45055 6.70683 3.42295 8.50069 3.42295 8.50069C3.42127 8.50069 2.88144 11.1102 2.52267 12.8512C2.49249 13.0088 2.5495 13.1756 2.68697 13.2754C2.8236 13.3751 2.99964 13.3768 3.13795 13.2988C4.68368 12.4203 6.99892 11.0993 6.99892 11.0993C6.99892 11.0993 9.315 12.4203 10.8582 13.2997C10.999 13.3768 11.1751 13.3751 11.3117 13.2754C11.4492 13.1756 11.5062 13.0088 11.4752 12.852C11.1164 11.1102 10.5774 8.50069 10.5774 8.50069C10.5774 8.50069 12.5498 6.70683 13.8625 5.51149C13.9799 5.40168 14.0318 5.23319 13.9799 5.07225C13.9279 4.9113 13.7871 4.80484 13.6278 4.7864C11.8608 4.58858 9.21106 4.29519 9.21106 4.29519C9.21106 4.29519 8.11296 1.86594 7.38116 0.246445C7.31243 0.101428 7.16825 0 6.99892 0C6.8296 0 6.68458 0.102267 6.61919 0.246445C5.88657 1.86594 4.7893 4.29519 4.7893 4.29519Z" fill="#268AFF"/>
</svg>
