<svg width="22" height="22" viewBox="0 0 22 22" fill="none" xmlns="http://www.w3.org/2000/svg">
<path d="M15.5834 8.24967V6.41634C15.5834 3.84967 13.5667 1.83301 11.0001 1.83301C8.43341 1.83301 6.41675 3.84967 6.41675 6.41634V8.24967C4.85841 8.24967 3.66675 9.44134 3.66675 10.9997V17.4163C3.66675 18.9747 4.85841 20.1663 6.41675 20.1663H15.5834C17.1417 20.1663 18.3334 18.9747 18.3334 17.4163V10.9997C18.3334 9.44134 17.1417 8.24967 15.5834 8.24967ZM8.25008 6.41634C8.25008 4.85801 9.44175 3.66634 11.0001 3.66634C12.5584 3.66634 13.7501 4.85801 13.7501 6.41634V8.24967H8.25008V6.41634ZM12.0084 14.208L11.9167 14.2997V15.583C11.9167 16.133 11.5501 16.4997 11.0001 16.4997C10.4501 16.4997 10.0834 16.133 10.0834 15.583V14.2997C9.53342 13.7497 9.44175 12.9247 9.99175 12.3747C10.5417 11.8247 11.3667 11.733 11.9167 12.283C12.4667 12.7413 12.5584 13.658 12.0084 14.208Z" fill="#737373"/>
</svg>
