<svg width="20" height="20" viewBox="0 0 20 20" fill="none" xmlns="http://www.w3.org/2000/svg">
<g clip-path="url(#clip0_1744_1251)">
<path fill-rule="evenodd" clip-rule="evenodd" d="M10 9.99993C7.794 9.99993 6 8.20593 6 5.99993C6 3.79393 7.794 1.99993 10 1.99993C12.206 1.99993 14 3.79393 14 5.99993C14 8.20593 12.206 9.99993 10 9.99993ZM13.758 10.6729C14.4582 10.1119 15.0232 9.40074 15.4113 8.59185C15.7994 7.78296 16.0006 6.8971 16 5.99993C16.0007 4.98548 15.7442 3.98746 15.2545 3.09905C14.7647 2.21064 14.0577 1.46082 13.1996 0.91985C12.3414 0.378882 11.3601 0.064387 10.3473 0.00566578C9.33457 -0.0530555 8.32346 0.145998 7.40851 0.584157C6.49356 1.02232 5.70465 1.68531 5.11551 2.51116C4.52637 3.33701 4.15622 4.29871 4.0397 5.30645C3.92319 6.31419 4.06408 7.33499 4.44922 8.27349C4.83436 9.21199 5.45118 10.0375 6.242 10.6729C2.583 12.0479 0 15.4449 0 19.9999H2C2 14.9999 5.589 11.9999 10 11.9999C14.411 11.9999 18 14.9999 18 19.9999H20C20 15.4449 17.417 12.0479 13.758 10.6729Z" fill="#BAC4CE"/>
</g>
<defs>
<clipPath id="clip0_1744_1251">
<rect width="20" height="20" fill="white"/>
</clipPath>
</defs>
</svg>
